<?xml version="1.0" encoding="UTF-8"?>
<svg id="Layer_1" data-name="Layer 1" xmlns="http://www.w3.org/2000/svg" viewBox="0 0 1920 1309.45">
  <g>
    <path d="M774.28,413.25c-23.83-10.36-105.18-31.61-105.18-31.61-94.82-19.17-114.51,49.22-114.51,49.22-43.05,6.48-52.85,29.02-52.85,29.02,131.61-3.11,157.52,101.56,157.52,101.56,19.38-82.9,115.03-148.19,115.03-148.19ZM613.36,433.75s-3.35,5.75-32.66,6.91c0,0,15.01-25.23,43.76-25.87,0,0-4.15,14.77-11.1,18.97Z"/>
    <path d="M798.68,588.27c-7.52,3.99-15.17,7.67-22.94,11.06,47.85-1.86,102.54-9.9,150.01-27.26,189.64-69.95,318.71-290.42,318.71-290.42-71.25,65.85-189.72,88.21-255.46,95.73-8.93,16.37-18.23,32.54-28.15,48.35-40.89,65.14-93.37,125.99-162.16,162.53Z"/>
    <path d="M877.67,479.72c26.82-30.24,49.16-63.83,69.27-98.81-3.62.17-5.6.22-5.6.22-164.94,11.52-242.77,153.36-263.53,209.44,7.39-.96,14.74-2.19,22.02-3.69,70.66-14.63,130.32-53.58,177.84-107.15Z"/>
    <path d="M1072.75,563.73c-7.92,5.45-15.6,11.29-22.98,17.58-37.51,31.95-66.66,72.35-85.19,117.52,260.68,10.4,453.69-155.8,453.69-155.8-163.68,95.67-290.75,50.46-345.51,20.69Z"/>
    <path d="M1013.49,569.11c-130.77,86.3-313.13,54.76-313.13,54.76,79.33,43.04,156.61,64.83,229.29,72.33,9.05-24.5,20.93-47.99,35.39-69.67,14.15-21.22,30.42-40.35,48.45-57.42Z"/>
  </g>
  <g>
    <path d="M541.62,879.64c-6.78-3.94-14.19-7.14-22.24-9.61-8.06-2.47-16.2-4.62-24.44-6.45-8.24-1.83-15.7-3.75-22.38-5.77-6.68-2.01-12.08-4.81-16.2-8.38-4.12-3.57-6.18-8.28-6.18-14.14,0-4.76,1.42-9.11,4.26-13.05,2.84-3.94,7.37-7.09,13.59-9.47,6.22-2.38,14.19-3.57,23.89-3.57,8.42,0,17.21,1.24,26.37,3.71,9.15,2.47,18.03,6.28,26.64,11.4l11.26-27.74c-8.42-5.49-18.31-9.7-29.66-12.63-11.36-2.93-22.8-4.4-34.33-4.4-17.58,0-32.09,2.61-43.53,7.83-11.45,5.22-19.96,12.18-25.54,20.87-5.59,8.7-8.38,18.26-8.38,28.7s2.06,18.67,6.18,25.27c4.12,6.59,9.57,11.85,16.34,15.79,6.77,3.94,14.23,7.19,22.38,9.75,8.14,2.57,16.29,4.72,24.44,6.45,8.15,1.74,15.56,3.66,22.25,5.77,6.68,2.11,12.13,4.95,16.34,8.52,4.21,3.57,6.32,8.28,6.32,14.14,0,4.76-1.47,9.02-4.39,12.77-2.93,3.75-7.51,6.73-13.73,8.92-6.23,2.2-14.38,3.3-24.44,3.3-11.91,0-23.53-2.01-34.88-6.04-11.36-4.03-20.87-9.06-28.56-15.1l-12.36,27.74c8.24,6.78,19.18,12.31,32.82,16.62,13.64,4.3,27.96,6.45,42.98,6.45,17.57,0,32.13-2.61,43.66-7.83,11.54-5.22,20.09-12.17,25.68-20.87,5.58-8.69,8.38-18.17,8.38-28.42s-2.06-18.35-6.18-24.85c-4.12-6.5-9.57-11.71-16.34-15.65Z"/>
    <path d="M704.75,835.29c-11.17-6.22-23.89-9.34-38.17-9.34-12.27,0-23.35,2.71-33.23,8.1-5.82,3.18-10.84,7.37-15.1,12.51v-18.69h-32.68v199.93h34.05v-71.15c4.15,4.78,8.89,8.7,14.28,11.7,9.7,5.4,20.6,8.1,32.68,8.1,14.28,0,27-3.11,38.17-9.34,11.16-6.22,20-14.97,26.5-26.23,6.5-11.26,9.75-24.48,9.75-39.69s-3.25-28.19-9.75-39.55c-6.5-11.35-15.34-20.14-26.5-26.37ZM700.36,925.37c-3.85,6.96-9.02,12.36-15.52,16.2-6.5,3.85-13.96,5.77-22.38,5.77s-15.38-1.92-21.97-5.77c-6.59-3.85-11.81-9.24-15.65-16.2-3.85-6.96-5.77-15.01-5.77-24.17s1.92-17.44,5.77-24.3c3.85-6.87,9.06-12.17,15.65-15.93,6.59-3.75,13.91-5.63,21.97-5.63s15.88,1.88,22.38,5.63c6.5,3.75,11.67,9.06,15.52,15.93,3.84,6.87,5.77,14.97,5.77,24.3s-1.92,17.21-5.77,24.17Z"/>
    <path d="M824.22,825.95c-11.72,0-22.98,1.56-33.78,4.67-10.81,3.11-20.23,7.69-28.29,13.73l13.46,24.99c5.67-4.58,12.45-8.15,20.32-10.71,7.87-2.56,15.84-3.85,23.9-3.85,12.45,0,21.74,2.79,27.88,8.38,6.13,5.59,9.2,13.41,9.2,23.48v2.19h-38.18c-14.83,0-26.73,1.92-35.7,5.77-8.97,3.85-15.43,9.06-19.36,15.65-3.94,6.59-5.9,14.01-5.9,22.24s2.24,15.98,6.73,22.66c4.48,6.68,10.85,11.9,19.09,15.65,8.24,3.75,17.86,5.63,28.84,5.63,13.18,0,23.98-2.38,32.4-7.14,5.8-3.28,10.36-7.5,13.73-12.6v17.82h32.41v-85.96c0-21.23-5.77-36.98-17.31-47.23-11.53-10.25-28.01-15.38-49.43-15.38ZM842.21,945.69c-6.68,3.84-14.24,5.77-22.66,5.77s-15.65-1.83-20.59-5.49c-4.95-3.66-7.42-8.51-7.42-14.55,0-5.67,2.06-10.39,6.18-14.15,4.12-3.75,11.94-5.63,23.48-5.63h35.7v17.03c-3.11,7.51-8.01,13.18-14.7,17.03Z"/>
    <path d="M945.88,849.19v-21.31h-32.68v146.66h34.05v-70.86c0-15.38,3.85-26.82,11.54-34.33,7.69-7.51,18.12-11.26,31.31-11.26,1.1,0,2.29.05,3.57.14,1.28.1,2.56.23,3.84.41v-32.68c-13.73,0-25.36,2.61-34.88,7.83-7.04,3.86-12.62,9-16.75,15.41Z"/>
    <path d="M1050.24,849.19v-21.31h-32.68v146.66h34.05v-70.86c0-15.38,3.85-26.82,11.54-34.33,7.69-7.51,18.12-11.26,31.31-11.26,1.1,0,2.29.05,3.57.14,1.28.1,2.56.23,3.84.41v-32.68c-13.73,0-25.36,2.61-34.88,7.83-7.04,3.86-12.62,9-16.75,15.41Z"/>
    <path d="M1224.42,835.7c-11.81-6.5-25.31-9.75-40.51-9.75s-28.38,3.25-40.1,9.75c-11.72,6.5-20.97,15.34-27.74,26.5-6.78,11.17-10.16,24.17-10.16,39s3.39,27.38,10.16,38.72c6.77,11.36,16.07,20.28,27.88,26.78,11.81,6.5,25.13,9.75,39.96,9.75s28.47-3.25,40.37-9.75c11.9-6.5,21.19-15.38,27.87-26.64,6.68-11.26,10.03-24.21,10.03-38.86s-3.34-27.83-10.03-39c-6.68-11.17-15.93-20-27.74-26.5ZM1221.95,925.51c-3.75,7.05-8.93,12.45-15.52,16.2-6.59,3.75-14.1,5.63-22.52,5.63s-15.38-1.88-21.97-5.63c-6.59-3.75-11.81-9.15-15.65-16.2-3.85-7.05-5.77-15.15-5.77-24.31s1.92-17.44,5.77-24.3c3.85-6.87,9.06-12.17,15.65-15.93,6.59-3.75,14.01-5.63,22.24-5.63s15.65,1.88,22.24,5.63c6.59,3.75,11.76,9.06,15.52,15.93,3.75,6.87,5.63,14.97,5.63,24.3s-1.88,17.26-5.63,24.31Z"/>
    <polygon points="1478.9 827.87 1439.1 936.23 1399.53 827.87 1370.69 827.87 1330.34 935.85 1291.6 827.87 1259.19 827.87 1313.02 974.53 1345.97 974.53 1384.63 873.13 1422.32 974.53 1455.28 974.53 1509.38 827.87 1478.9 827.87"/>
  </g>
</svg>